<svg width="220" height="242" viewBox="0 0 220 242" fill="none" xmlns="http://www.w3.org/2000/svg">
<path d="M0.581543 135.379C0.581543 193.417 48.3401 241.176 106.379 241.176C164.417 241.176 212.176 193.417 212.176 135.379C212.176 77.3402 164.417 29.5816 106.379 29.5816C48.3401 29.5816 0.581543 77.3402 0.581543 135.379Z" fill="#55C4D4"/>
<path d="M49.7056 121.686C49.7056 127.444 54.4442 132.183 60.2028 132.183C65.9613 132.183 70.6996 127.444 70.6996 121.686C70.6996 115.927 65.9613 111.189 60.2028 111.189C54.4442 111.189 49.7056 115.927 49.7056 121.686ZM163.63 130.53C163.16 130.531 162.694 130.439 162.259 130.259C161.824 130.079 161.428 129.815 161.096 129.483C160.763 129.15 160.499 128.755 160.32 128.32C160.14 127.885 160.048 127.419 160.049 126.948C160.049 123.118 157.266 120.005 153.822 120.005C150.378 120.005 147.595 123.118 147.595 126.948C147.596 127.419 147.504 127.885 147.325 128.32C147.145 128.755 146.881 129.15 146.548 129.483C146.216 129.815 145.82 130.079 145.386 130.259C144.951 130.439 144.484 130.531 144.014 130.53C143.543 130.531 143.077 130.439 142.642 130.259C142.207 130.079 141.812 129.815 141.479 129.483C141.146 129.15 140.883 128.755 140.703 128.32C140.523 127.885 140.431 127.419 140.432 126.948C140.432 119.178 146.438 112.842 153.822 112.842C161.206 112.842 167.212 119.178 167.212 126.948C167.213 127.419 167.121 127.885 166.941 128.32C166.762 128.755 166.498 129.15 166.165 129.483C165.832 129.815 165.437 130.079 165.002 130.259C164.567 130.439 164.101 130.531 163.63 130.53Z" fill="#141414"/>
<path d="M80.7009 145.793C80.7009 159.348 92.3827 170.424 106.654 170.424C120.926 170.424 132.607 159.348 132.607 145.793V139.511H80.7009V145.793Z" fill="#4F423B"/>
<path d="M106.654 174.006C90.3713 174.006 77.1191 161.36 77.1191 145.793V135.93H136.217V145.793C136.217 161.36 122.965 174.006 106.654 174.006ZM84.2827 143.093V145.793C84.2827 157.392 94.3112 166.842 106.654 166.842C118.997 166.842 129.026 157.392 129.026 145.793V143.093H84.2827Z" fill="#141414"/>
<path d="M91.2808 158.411C91.2808 161.752 98.2207 164.5 106.654 164.5C115.088 164.5 122.028 161.752 122.028 158.411C122.028 155.071 115.088 152.323 106.654 152.323C98.2207 152.323 91.2808 155.071 91.2808 158.411Z" fill="#D39E33"/>
<path d="M41.5229 163.343C41.5229 168.467 45.7389 172.683 50.8626 172.683C55.9864 172.683 60.2028 168.467 60.2028 163.343C60.2028 158.22 55.9864 154.003 50.8626 154.003C45.7389 154.003 41.5229 158.22 41.5229 163.343ZM32.5135 108.378C32.0727 108.378 31.6594 108.296 31.2186 108.13C29.3728 107.414 28.4636 105.348 29.1524 103.502C34.828 88.7617 44.6911 76.1983 57.6679 67.1064C70.9475 57.8217 86.5967 52.9176 102.852 52.9176C115.939 52.9176 128.916 56.1963 140.377 62.3678C142.113 63.3044 142.774 65.481 141.837 67.2168C140.901 68.9526 138.724 69.6138 136.988 68.6768C126.574 63.0565 114.782 60.0808 102.88 60.0808C88.0845 60.0808 73.8682 64.5444 61.8006 73.0025C49.981 81.2677 40.9995 92.7015 35.8472 106.092C35.2964 107.497 33.9464 108.378 32.5135 108.378Z" fill="white"/>
<path d="M166.724 105.266C195.843 105.266 219.449 81.7012 219.449 52.6329C219.449 23.5646 195.843 0 166.724 0C137.606 0 114 23.5646 114 52.6329C114 81.7012 137.606 105.266 166.724 105.266Z" fill="#BB953B"/>
<mask id="mask0_96_130" style="mask-type:luminance" maskUnits="userSpaceOnUse" x="114" y="0" width="106" height="106">
<path d="M218.949 52.6329C218.949 81.4243 195.568 104.766 166.724 104.766C137.881 104.766 114.5 81.4243 114.5 52.6329C114.5 23.8415 137.881 0.5 166.724 0.5C195.568 0.5 218.949 23.8415 218.949 52.6329Z" fill="white" stroke="white"/>
</mask>
<g mask="url(#mask0_96_130)">
<path fill-rule="evenodd" clip-rule="evenodd" d="M207.668 -29.1461L241.114 -6.97416L255.118 30.5879L244.329 69.1936L212.871 94.096L172.757 95.7832L139.311 73.6112L125.308 36.0492L136.096 -2.55654L167.554 -27.4589L207.668 -29.1461Z" fill="#D9AD44"/>
</g>
<path d="M199.514 72.203L197.234 73.6023L201.054 76.8616L202.062 74.3995L199.514 72.203ZM176.193 35.323L172.467 37.609L178.708 42.9339L180.355 38.9116L176.193 35.323ZM148.321 63.5472L145.777 65.1075L150.039 68.743L151.163 65.997L148.321 63.5472ZM155.684 17.4507L158.386 15.7579L153.798 11.9156L152.624 14.8607L155.684 17.4507ZM191.066 79.6199L193.977 77.7969L189.035 73.6582L187.769 76.8303L191.066 79.6199Z" fill="#BB953B"/>
<path fill-rule="evenodd" clip-rule="evenodd" d="M203.053 36.0603L204.525 43.6214L197.776 47.3553L192.133 42.1014L195.395 35.1211L203.053 36.0603ZM158.567 25.175L154.538 36.5841L142.592 36.0703L139.238 24.3437L149.111 17.6099L158.567 25.175ZM162.872 65.3735L159.721 50.8751L172.561 43.4039L183.646 53.2846L177.658 66.8628L162.872 65.3735ZM131.321 58.3054L129.106 49.9896L136.332 45.5104L143.012 51.0579L139.915 58.9657L131.321 58.3054ZM170.289 96.2873L161.886 88.9L166.453 78.8583L177.678 80.0385L180.049 90.8103L170.289 96.2873Z" fill="#BB953B"/>
</svg>
