<svg width="110" height="32" viewBox="0 0 110 32" fill="none" xmlns="http://www.w3.org/2000/svg">
<path d="M74.0291 8.80836C74.0242 8.60669 74.059 8.40605 74.1313 8.21818C74.2037 8.03031 74.3122 7.85899 74.4506 7.71424C74.5889 7.56949 74.7543 7.45422 74.9371 7.37519C75.1198 7.29615 75.3162 7.25493 75.5149 7.25394C75.719 7.24652 75.9226 7.28095 76.1133 7.35518C76.3041 7.4294 76.4782 7.54191 76.6252 7.68597C76.7722 7.83003 76.8892 8.0027 76.969 8.19367C77.0489 8.38464 77.09 8.59 77.09 8.79748C77.09 9.00496 77.0489 9.21032 76.969 9.40129C76.8892 9.59226 76.7722 9.76493 76.6252 9.90899C76.4782 10.0531 76.3041 10.1656 76.1133 10.2398C75.9226 10.314 75.719 10.3484 75.5149 10.341C75.3179 10.3405 75.123 10.3004 74.9415 10.2229C74.7599 10.1454 74.5953 10.0321 74.4571 9.88953C74.319 9.747 74.21 9.57805 74.1365 9.39247C74.0631 9.20689 74.0266 9.00836 74.0291 8.80836V8.80836Z" fill="#968B83"/>
<path d="M39.0455 7.29151C39.0455 6.83073 39.2675 6.57759 39.5732 6.57759H52.1211C52.1909 6.57759 52.2599 6.59164 52.3244 6.61895C52.3888 6.64625 52.4472 6.68626 52.4963 6.73666C52.5454 6.78705 52.5841 6.84684 52.6103 6.91254C52.6364 6.97825 52.6495 7.04858 52.6488 7.11946V8.70156C52.6488 8.8437 52.5932 8.98002 52.4942 9.08053C52.3952 9.18104 52.261 9.2375 52.1211 9.2375H41.9079V15.7637H48.84C48.9786 15.7681 49.1103 15.826 49.2083 15.9256C49.3063 16.0251 49.3633 16.1589 49.3677 16.2996V17.852C49.3633 17.9928 49.3063 18.1265 49.2083 18.2261C49.1103 18.3256 48.9786 18.3835 48.84 18.388H41.9079V24.9181C41.9031 25.0587 41.8459 25.1922 41.748 25.2916C41.6501 25.3911 41.5186 25.4491 41.3802 25.4541H39.5732C39.4596 25.4572 39.3478 25.4244 39.2533 25.3603C39.1588 25.2962 39.0862 25.2039 39.0455 25.0961V7.29151Z" fill="#968B83"/>
<path d="M57.7368 11.8658C61.0724 11.8658 63.6018 14.3793 63.6018 17.8501C63.6018 18.0755 63.5726 18.5284 63.5453 18.7538C63.5343 18.9047 63.4683 19.0459 63.3603 19.1501C63.2524 19.2543 63.1101 19.314 62.9612 19.3175H54.0975C54.1247 21.0677 55.6806 22.8772 57.9315 22.8772C59.4056 22.8772 60.2935 22.3413 61.0724 21.7776C61.3508 21.5799 61.6001 21.4948 61.8221 21.833L62.5737 23.0196C62.7957 23.3024 62.9067 23.5555 62.5172 23.8937C61.6001 24.7204 59.9041 25.5114 57.7641 25.5114C53.8696 25.5114 51.3383 22.4065 51.3383 18.6807C51.3461 15.0043 53.8735 11.8658 57.7368 11.8658ZM60.8524 17.2291C60.7959 15.647 59.573 14.2627 57.6842 14.2627C55.6552 14.2627 54.4324 15.5877 54.2377 17.2291H60.8524Z" fill="#968B83"/>
<path d="M74.1207 12.7735C74.1264 12.611 74.1924 12.4567 74.3055 12.3416C74.4185 12.2264 74.5702 12.1589 74.7301 12.1525H76.2879C76.4465 12.1636 76.5957 12.2326 76.7081 12.3467C76.8205 12.4609 76.8884 12.6125 76.8993 12.7735V24.572C76.8931 24.7347 76.8267 24.889 76.7133 25.0041C76.6 25.1192 76.4481 25.1867 76.2879 25.193H74.7301C74.5686 25.1915 74.4142 25.1255 74.3002 25.0093C74.1862 24.8931 74.1217 24.7361 74.1207 24.572V12.7735Z" fill="#968B83"/>
<path d="M86.0142 11.8658C88.016 11.8658 89.4881 12.6291 90.6876 14.1242C90.7427 14.1919 90.7836 14.2702 90.808 14.3544C90.8323 14.4386 90.8395 14.527 90.8291 14.6142C90.8187 14.7013 90.791 14.7854 90.7476 14.8613C90.7041 14.9372 90.646 15.0033 90.5766 15.0557L89.5718 15.9911C89.2096 16.3293 88.9604 16.0761 88.7384 15.8507C88.1542 15.202 87.1261 14.5514 86.098 14.5514C83.9015 14.5514 82.2035 16.3589 82.2035 18.6728C82.2035 20.9866 83.8704 22.8258 86.0103 22.8258C87.6772 22.8258 88.347 21.8666 89.0402 21.216C89.091 21.1518 89.1545 21.099 89.2265 21.0611C89.2986 21.0232 89.3776 21.0009 89.4585 20.9957C89.5395 20.9905 89.6207 21.0024 89.6968 21.0308C89.773 21.0592 89.8425 21.1034 89.9009 21.1606L90.7615 21.8666C91.0673 22.1475 91.2075 22.4599 90.9855 22.7981C90.4458 23.6423 89.7043 24.3339 88.8302 24.8084C87.9562 25.2829 86.978 25.5247 85.987 25.5114C82.4022 25.5114 79.4288 22.632 79.4288 18.7084C79.4288 14.8619 82.4567 11.8658 86.0142 11.8658Z" fill="#968B83"/>
<path d="M93.3513 12.7735C93.3576 12.6108 93.424 12.4566 93.5373 12.3414C93.6507 12.2263 93.8026 12.1589 93.9628 12.1525H95.5205C95.6791 12.1636 95.8284 12.2326 95.9407 12.3467C96.0531 12.4609 96.121 12.6125 96.132 12.7735V24.572C96.1257 24.7347 96.0593 24.889 95.9459 25.0041C95.8326 25.1192 95.6807 25.1867 95.5205 25.193H93.9628C93.8011 25.1915 93.6464 25.1255 93.5321 25.0094C93.4178 24.8933 93.3529 24.7362 93.3513 24.572V12.7735Z" fill="#968B83"/>
<path d="M98.5874 24.1765C98.4742 24.112 98.3886 24.0071 98.3472 23.8821C98.3058 23.7572 98.3116 23.621 98.3635 23.5002L98.9476 22.2859C99.0878 22.0031 99.4481 21.9181 99.781 22.1158C100.533 22.539 101.45 23.075 102.978 23.075C104.061 23.075 104.672 22.539 104.672 21.8053C104.672 20.9312 103.699 20.3656 101.921 19.5469C99.9485 18.6451 98.4472 17.5693 98.4472 15.4275C98.4472 13.79 99.5863 11.8678 102.7 11.8678C104.478 11.8678 105.815 12.4057 106.452 12.8289C106.603 12.9288 106.715 13.0805 106.765 13.2565C106.816 13.4324 106.803 13.621 106.729 13.788L106.285 14.6918C106.248 14.7653 106.196 14.8305 106.134 14.8833C106.072 14.9362 105.999 14.9756 105.921 14.9993C105.843 15.0229 105.762 15.0303 105.681 15.021C105.6 15.0116 105.522 14.9858 105.451 14.9449C104.59 14.5312 103.652 14.31 102.7 14.2963C101.588 14.2963 101.06 14.8599 101.06 15.4532C101.06 16.2996 101.977 16.8079 103.255 17.3715C105.617 18.388 107.397 19.2641 107.397 21.6906C107.397 23.7315 105.673 25.5114 102.813 25.5114C101.304 25.5114 99.8302 25.0458 98.5874 24.1765V24.1765Z" fill="#968B83"/>
<path d="M93.2326 8.80836C93.2276 8.60669 93.2624 8.40605 93.3347 8.21818C93.4071 8.03031 93.5156 7.85899 93.654 7.71424C93.7923 7.56949 93.9577 7.45422 94.1405 7.37519C94.3232 7.29615 94.5196 7.25493 94.7183 7.25394C94.9224 7.24652 95.126 7.28095 95.3167 7.35518C95.5075 7.4294 95.6816 7.54191 95.8286 7.68597C95.9756 7.83003 96.0926 8.0027 96.1724 8.19367C96.2523 8.38464 96.2935 8.59 96.2935 8.79748C96.2935 9.00496 96.2523 9.21032 96.1724 9.40129C96.0926 9.59226 95.9756 9.76493 95.8286 9.90899C95.6816 10.0531 95.5075 10.1656 95.3167 10.2398C95.126 10.314 94.9224 10.3484 94.7183 10.341C94.5213 10.3405 94.3265 10.3004 94.1449 10.2229C93.9633 10.1454 93.7987 10.0321 93.6605 9.88953C93.5224 9.747 93.4134 9.57805 93.3399 9.39247C93.2665 9.20689 93.23 9.00836 93.2326 8.80836V8.80836Z" fill="#968B83"/>
<path d="M71.4763 24.8667C71.4764 24.9546 71.4585 25.0415 71.4237 25.122C71.3889 25.2025 71.3381 25.2748 71.2744 25.3343C71.2107 25.3937 71.1355 25.4392 71.0536 25.4676C70.9718 25.4961 70.8849 25.5069 70.7987 25.4995C69.1033 25.3453 67.8214 24.5898 66.953 23.2332C66.3493 22.276 66.0475 20.8969 66.0475 19.096V8.55127C66.0475 8.46816 66.0636 8.38587 66.0949 8.30909C66.1263 8.23231 66.1722 8.16255 66.23 8.10378C66.2879 8.04502 66.3566 7.9984 66.4322 7.9666C66.5078 7.9348 66.5888 7.91843 66.6706 7.91843H68.1953C68.2771 7.91843 68.3581 7.9348 68.4337 7.9666C68.5093 7.9984 68.578 8.04502 68.6359 8.10378C68.6938 8.16255 68.7397 8.23231 68.771 8.30909C68.8023 8.38587 68.8184 8.46816 68.8184 8.55127V19.096C68.8184 20.3221 68.9846 21.2035 69.3169 21.7401C69.6453 22.3004 70.1821 22.63 70.9272 22.7289C71.0777 22.748 71.2162 22.8218 71.3172 22.9367C71.4182 23.0516 71.4747 23.1998 71.4763 23.3538V24.8667Z" fill="#968B83"/>
<path d="M27.8899 17.8837C26.2757 18.562 24.0714 18.3623 17.2815 15.5105C20.0933 8.61455 21.5128 6.89006 23.1231 6.21568C24.7335 5.54131 26.8229 6.12076 27.7341 8.35746C27.9917 8.93571 28.1605 9.55064 28.2346 10.1808C28.2491 10.4063 28.2991 10.628 28.3826 10.8374C28.4701 11.0454 28.589 11.2382 28.735 11.4089C29.1233 11.9058 29.4345 12.46 29.658 13.0523V13.0523C30.5712 15.293 29.5022 17.2054 27.8899 17.8837Z" fill="#FF7E00"/>
<path d="M9.08374 25.7942C10.696 25.1159 12.1156 23.3914 14.9254 16.4993C8.13934 13.6456 5.93315 13.4479 4.32086 14.1163C2.70857 14.7847 1.63955 16.707 2.55084 18.9437C2.77513 19.5375 3.08844 20.0925 3.47966 20.5891C3.62637 20.7597 3.74594 20.9525 3.83406 21.1606C3.91576 21.3706 3.96566 21.592 3.98204 21.8172C4.05413 22.4505 4.22159 23.0688 4.47858 23.6505V23.6505C5.38404 25.8891 7.4695 26.4725 9.08374 25.7942Z" fill="#FF7E00"/>
<path d="M19.0028 29.7653C19.5874 29.536 20.1343 29.2179 20.6249 28.822C20.7923 28.6731 20.9815 28.5517 21.1857 28.462C21.3925 28.3793 21.6105 28.3286 21.8321 28.3117C22.4547 28.2411 23.0628 28.0737 23.6353 27.8153V27.8153C25.8376 26.8878 26.4139 24.7698 25.746 23.1303C25.0782 21.4909 23.3782 20.0512 16.5941 17.1975C13.7824 24.0915 13.5838 26.3321 14.2575 27.9696C14.9312 29.6071 16.8005 30.6908 19.0028 29.7653Z" fill="#FF7E00"/>
<path d="M6.46085 8.86966C7.12874 10.5071 8.82866 11.9488 15.6128 14.8025C18.4304 7.91051 18.627 5.66986 17.9591 4.03238C17.2912 2.39491 15.4083 1.30919 13.206 2.23472C12.6212 2.46358 12.0743 2.78168 11.584 3.17805C11.4153 3.32617 11.2256 3.44752 11.0212 3.53798C10.8147 3.62143 10.5965 3.67148 10.3747 3.6863C9.75085 3.75755 9.14142 3.92562 8.56773 4.18466V4.18466C6.36933 5.11217 5.79295 7.23021 6.46085 8.86966Z" fill="#FF7E00"/>
</svg>
